<mxfile host="65bd71144e">
    <diagram id="zHp55usfK5RpxnjyUJce" name="第 1 页">
        <mxGraphModel dx="701" dy="444" grid="1" gridSize="10" guides="1" tooltips="1" connect="1" arrows="1" fold="1" page="1" pageScale="1" pageWidth="827" pageHeight="1169" background="none" math="0" shadow="0">
            <root>
                <mxCell id="0"/>
                <mxCell id="1" parent="0"/>
                <mxCell id="2" value="登录" style="swimlane;fontStyle=1;align=center;verticalAlign=top;childLayout=stackLayout;horizontal=1;startSize=26;horizontalStack=0;resizeParent=1;resizeParentMax=0;resizeLast=0;collapsible=1;marginBottom=0;rounded=0;" parent="1" vertex="1">
                    <mxGeometry x="370" y="30" width="200" height="170" as="geometry">
                        <mxRectangle x="270" y="60" width="60" height="26" as="alternateBounds"/>
                    </mxGeometry>
                </mxCell>
                <mxCell id="3" value="+ 用户名&#10;+ 密码&#10;+ 登录IP&#10;+ 登录时间" style="text;strokeColor=none;fillColor=none;align=left;verticalAlign=top;spacingLeft=4;spacingRight=4;overflow=hidden;rotatable=0;points=[[0,0.5],[1,0.5]];portConstraint=eastwest;rounded=0;" parent="2" vertex="1">
                    <mxGeometry y="26" width="200" height="144" as="geometry"/>
                </mxCell>
                <mxCell id="6" value="密码表" style="swimlane;fontStyle=1;align=center;verticalAlign=top;childLayout=stackLayout;horizontal=1;startSize=26;horizontalStack=0;resizeParent=1;resizeParentMax=0;resizeLast=0;collapsible=1;marginBottom=0;rounded=0;" parent="1" vertex="1">
                    <mxGeometry x="110" y="30" width="200" height="170" as="geometry">
                        <mxRectangle x="270" y="60" width="60" height="26" as="alternateBounds"/>
                    </mxGeometry>
                </mxCell>
                <mxCell id="7" value="+ 密码" style="text;strokeColor=none;fillColor=none;align=left;verticalAlign=top;spacingLeft=4;spacingRight=4;overflow=hidden;rotatable=0;points=[[0,0.5],[1,0.5]];portConstraint=eastwest;rounded=0;" parent="6" vertex="1">
                    <mxGeometry y="26" width="200" height="144" as="geometry"/>
                </mxCell>
                <mxCell id="8" value="" style="edgeStyle=none;html=1;rounded=0;" parent="1" source="7" target="3" edge="1">
                    <mxGeometry relative="1" as="geometry"/>
                </mxCell>
                <mxCell id="9" value="股票" style="swimlane;fontStyle=1;align=center;verticalAlign=top;childLayout=stackLayout;horizontal=1;startSize=26;horizontalStack=0;resizeParent=1;resizeParentMax=0;resizeLast=0;collapsible=1;marginBottom=0;rounded=0;" parent="1" vertex="1">
                    <mxGeometry x="110" y="240" width="200" height="170" as="geometry">
                        <mxRectangle x="270" y="60" width="60" height="26" as="alternateBounds"/>
                    </mxGeometry>
                </mxCell>
                <mxCell id="10" value="+ 股票名称&#10;+ 股票代码&#10;+ 上市时间&#10;+ 上市公司" style="text;strokeColor=none;fillColor=none;align=left;verticalAlign=top;spacingLeft=4;spacingRight=4;overflow=hidden;rotatable=0;points=[[0,0.5],[1,0.5]];portConstraint=eastwest;rounded=0;" parent="9" vertex="1">
                    <mxGeometry y="26" width="200" height="144" as="geometry"/>
                </mxCell>
                <mxCell id="13" value="公司" style="swimlane;fontStyle=1;align=center;verticalAlign=top;childLayout=stackLayout;horizontal=1;startSize=26;horizontalStack=0;resizeParent=1;resizeParentMax=0;resizeLast=0;collapsible=1;marginBottom=0;rounded=0;" parent="1" vertex="1">
                    <mxGeometry x="370" y="240" width="200" height="170" as="geometry">
                        <mxRectangle x="270" y="60" width="60" height="26" as="alternateBounds"/>
                    </mxGeometry>
                </mxCell>
                <mxCell id="14" value="+ 公司名称&#10;+ 公司地址&#10;+ …………" style="text;strokeColor=none;fillColor=none;align=left;verticalAlign=top;spacingLeft=4;spacingRight=4;overflow=hidden;rotatable=0;points=[[0,0.5],[1,0.5]];portConstraint=eastwest;rounded=0;" parent="13" vertex="1">
                    <mxGeometry y="26" width="200" height="144" as="geometry"/>
                </mxCell>
                <mxCell id="15" value="" style="edgeStyle=none;html=1;rounded=0;" parent="1" source="10" target="14" edge="1">
                    <mxGeometry relative="1" as="geometry"/>
                </mxCell>
                <mxCell id="16" value="价格" style="swimlane;fontStyle=1;align=center;verticalAlign=top;childLayout=stackLayout;horizontal=1;startSize=26;horizontalStack=0;resizeParent=1;resizeParentMax=0;resizeLast=0;collapsible=1;marginBottom=0;rounded=0;" parent="1" vertex="1">
                    <mxGeometry x="110" y="470" width="200" height="170" as="geometry">
                        <mxRectangle x="270" y="60" width="60" height="26" as="alternateBounds"/>
                    </mxGeometry>
                </mxCell>
                <mxCell id="17" value="+ 股票代码&#10;+ 最高价&#10;+ 最低价&#10;+ 当前价&#10;+ ………………" style="text;strokeColor=none;fillColor=none;align=left;verticalAlign=top;spacingLeft=4;spacingRight=4;overflow=hidden;rotatable=0;points=[[0,0.5],[1,0.5]];portConstraint=eastwest;rounded=0;" parent="16" vertex="1">
                    <mxGeometry y="26" width="200" height="144" as="geometry"/>
                </mxCell>
                <mxCell id="18" value="" style="ellipse;html=1;shape=startState;fillColor=#000000;strokeColor=#ff0000;rounded=0;" parent="1" vertex="1">
                    <mxGeometry x="330" y="380" width="30" height="30" as="geometry"/>
                </mxCell>
                <mxCell id="19" value="" style="edgeStyle=orthogonalEdgeStyle;html=1;verticalAlign=bottom;endArrow=open;endSize=8;strokeColor=#ff0000;rounded=0;" parent="1" source="18" edge="1">
                    <mxGeometry relative="1" as="geometry">
                        <mxPoint x="345" y="470" as="targetPoint"/>
                    </mxGeometry>
                </mxCell>
                <mxCell id="22" value="A服务&lt;br&gt;.Net Core + SqlServer&lt;br&gt;Windows" style="ellipse;whiteSpace=wrap;html=1;rounded=0;" parent="1" vertex="1">
                    <mxGeometry x="60" y="930" width="120" height="80" as="geometry"/>
                </mxCell>
                <mxCell id="23" value="B服务&lt;br&gt;Java + Oracle&lt;br&gt;Linux" style="ellipse;whiteSpace=wrap;html=1;rounded=0;" parent="1" vertex="1">
                    <mxGeometry x="250" y="930" width="120" height="80" as="geometry"/>
                </mxCell>
                <mxCell id="24" value="C服务&lt;br&gt;Python + Mysql&lt;br&gt;Unix" style="ellipse;whiteSpace=wrap;html=1;rounded=0;" parent="1" vertex="1">
                    <mxGeometry x="440" y="930" width="120" height="80" as="geometry"/>
                </mxCell>
                <mxCell id="25" value="" style="shape=cylinder3;whiteSpace=wrap;html=1;boundedLbl=1;backgroundOutline=1;size=15;rounded=0;" parent="1" vertex="1">
                    <mxGeometry x="90" y="830" width="60" height="80" as="geometry"/>
                </mxCell>
                <mxCell id="26" value="" style="shape=cylinder3;whiteSpace=wrap;html=1;boundedLbl=1;backgroundOutline=1;size=15;rounded=0;" parent="1" vertex="1">
                    <mxGeometry x="280" y="830" width="60" height="80" as="geometry"/>
                </mxCell>
                <mxCell id="27" value="" style="shape=cylinder3;whiteSpace=wrap;html=1;boundedLbl=1;backgroundOutline=1;size=15;rounded=0;" parent="1" vertex="1">
                    <mxGeometry x="470" y="829" width="60" height="80" as="geometry"/>
                </mxCell>
                <mxCell id="30" value="" style="edgeStyle=none;html=1;rounded=0;" parent="1" source="28" target="29" edge="1">
                    <mxGeometry relative="1" as="geometry"/>
                </mxCell>
                <mxCell id="28" value="Repository仓储层" style="shape=process;whiteSpace=wrap;html=1;backgroundOutline=1;rounded=0;" parent="1" vertex="1">
                    <mxGeometry x="280" y="1190" width="120" height="60" as="geometry"/>
                </mxCell>
                <mxCell id="32" value="" style="edgeStyle=none;html=1;rounded=0;" parent="1" source="29" target="31" edge="1">
                    <mxGeometry relative="1" as="geometry"/>
                </mxCell>
                <mxCell id="29" value="Service层" style="whiteSpace=wrap;html=1;rounded=0;" parent="1" vertex="1">
                    <mxGeometry x="280" y="1311" width="120" height="60" as="geometry"/>
                </mxCell>
                <mxCell id="31" value="WebAPI接口层" style="shape=process;whiteSpace=wrap;html=1;backgroundOutline=1;rounded=0;" parent="1" vertex="1">
                    <mxGeometry x="280" y="1411" width="120" height="60" as="geometry"/>
                </mxCell>
                <mxCell id="33" value="" style="endArrow=classic;html=1;entryX=0.5;entryY=1;entryDx=0;entryDy=0;exitX=0.365;exitY=-0.033;exitDx=0;exitDy=0;exitPerimeter=0;rounded=0;" parent="1" source="28" target="22" edge="1">
                    <mxGeometry width="50" height="50" relative="1" as="geometry">
                        <mxPoint x="90" y="1080" as="sourcePoint"/>
                        <mxPoint x="140" y="1030" as="targetPoint"/>
                    </mxGeometry>
                </mxCell>
                <mxCell id="34" value="" style="endArrow=classic;html=1;exitX=0.385;exitY=-0.047;exitDx=0;exitDy=0;exitPerimeter=0;rounded=0;" parent="1" source="28" target="23" edge="1">
                    <mxGeometry width="50" height="50" relative="1" as="geometry">
                        <mxPoint x="320" y="1100" as="sourcePoint"/>
                        <mxPoint x="130" y="1020" as="targetPoint"/>
                    </mxGeometry>
                </mxCell>
                <mxCell id="35" value="" style="endArrow=classic;html=1;exitX=0.405;exitY=-0.073;exitDx=0;exitDy=0;exitPerimeter=0;rounded=0;" parent="1" source="28" target="24" edge="1">
                    <mxGeometry width="50" height="50" relative="1" as="geometry">
                        <mxPoint x="326.20000000000005" y="1116.18" as="sourcePoint"/>
                        <mxPoint x="321.7639430961135" y="1019.982710178574" as="targetPoint"/>
                    </mxGeometry>
                </mxCell>
                <mxCell id="36" value="微服务" style="rhombus;whiteSpace=wrap;html=1;rounded=0;" parent="1" vertex="1">
                    <mxGeometry x="520" y="1200" width="80" height="80" as="geometry"/>
                </mxCell>
                <mxCell id="38" value="API&amp;nbsp; Gateway&lt;br&gt;API网关" style="shape=parallelogram;perimeter=parallelogramPerimeter;whiteSpace=wrap;html=1;fixedSize=1;rounded=0;" parent="1" vertex="1">
                    <mxGeometry x="170" y="1080" width="280" height="60" as="geometry"/>
                </mxCell>
                <mxCell id="52" value="软件公司（OA）" style="rounded=0;whiteSpace=wrap;html=1;fontSize=20;" parent="1" vertex="1">
                    <mxGeometry x="250" y="1560" width="220" height="60" as="geometry"/>
                </mxCell>
                <mxCell id="56" value="" style="edgeStyle=none;html=1;fontSize=20;rounded=0;" parent="1" source="53" target="55" edge="1">
                    <mxGeometry relative="1" as="geometry"/>
                </mxCell>
                <mxCell id="53" value="定制化开发" style="rounded=0;whiteSpace=wrap;html=1;fontSize=22;" parent="1" vertex="1">
                    <mxGeometry x="70" y="1754" width="220" height="60" as="geometry"/>
                </mxCell>
                <mxCell id="54" value="" style="shape=flexArrow;endArrow=classic;startArrow=classic;html=1;fontSize=20;exitX=0.5;exitY=0;exitDx=0;exitDy=0;entryX=0.5;entryY=1;entryDx=0;entryDy=0;rounded=0;" parent="1" source="53" target="52" edge="1">
                    <mxGeometry width="100" height="100" relative="1" as="geometry">
                        <mxPoint x="240" y="1760" as="sourcePoint"/>
                        <mxPoint x="340" y="1660" as="targetPoint"/>
                    </mxGeometry>
                </mxCell>
                <mxCell id="58" value="" style="edgeStyle=none;html=1;fontSize=14;rounded=0;" parent="1" source="55" target="57" edge="1">
                    <mxGeometry relative="1" as="geometry"/>
                </mxCell>
                <mxCell id="55" value="梳理用户需求，设计界面原型，定制开发" style="shape=document;whiteSpace=wrap;html=1;boundedLbl=1;fontSize=14;rounded=0;" parent="1" vertex="1">
                    <mxGeometry x="105" y="1870" width="150" height="80" as="geometry"/>
                </mxCell>
                <mxCell id="64" value="" style="edgeStyle=none;html=1;fontSize=14;rounded=0;" parent="1" source="57" target="63" edge="1">
                    <mxGeometry relative="1" as="geometry"/>
                </mxCell>
                <mxCell id="57" value="部署到甲方服务器" style="shape=process;whiteSpace=wrap;html=1;backgroundOutline=1;fontSize=14;rounded=0;" parent="1" vertex="1">
                    <mxGeometry x="120" y="1990" width="120" height="60" as="geometry"/>
                </mxCell>
                <mxCell id="66" value="" style="edgeStyle=none;html=1;fontSize=14;rounded=0;" parent="1" source="63" target="65" edge="1">
                    <mxGeometry relative="1" as="geometry"/>
                </mxCell>
                <mxCell id="63" value="维护&lt;br&gt;bug维护&lt;br&gt;新增功能&lt;br&gt;二开&lt;br&gt;" style="rhombus;whiteSpace=wrap;html=1;fontSize=14;rounded=0;" parent="1" vertex="1">
                    <mxGeometry x="92.5" y="2110" width="175" height="80" as="geometry"/>
                </mxCell>
                <mxCell id="65" value="测试、重新&lt;br&gt;发布、部署" style="ellipse;whiteSpace=wrap;html=1;fontSize=14;rounded=0;" parent="1" vertex="1">
                    <mxGeometry x="120" y="2240" width="120" height="60" as="geometry"/>
                </mxCell>
                <mxCell id="71" value="" style="edgeStyle=none;html=1;fontSize=12;rounded=0;" parent="1" source="67" target="70" edge="1">
                    <mxGeometry relative="1" as="geometry"/>
                </mxCell>
                <mxCell id="67" value="SaaS&lt;font style=&quot;font-size: 12px&quot;&gt;（&lt;/font&gt;&lt;font style=&quot;font-size: 12px&quot;&gt;software as a service）&lt;br&gt;软件即服务&lt;br&gt;&lt;/font&gt;" style="rounded=0;whiteSpace=wrap;html=1;fontSize=22;" parent="1" vertex="1">
                    <mxGeometry x="420" y="1754" width="220" height="56" as="geometry"/>
                </mxCell>
                <mxCell id="69" value="" style="shape=flexArrow;endArrow=classic;startArrow=classic;html=1;fontSize=20;exitX=0.5;exitY=0;exitDx=0;exitDy=0;entryX=0.5;entryY=1;entryDx=0;entryDy=0;rounded=0;" parent="1" source="67" target="52" edge="1">
                    <mxGeometry width="100" height="100" relative="1" as="geometry">
                        <mxPoint x="310" y="1984" as="sourcePoint"/>
                        <mxPoint x="490" y="1850" as="targetPoint"/>
                        <Array as="points">
                            <mxPoint x="450" y="1690"/>
                        </Array>
                    </mxGeometry>
                </mxCell>
                <mxCell id="75" value="" style="edgeStyle=none;html=1;fontSize=12;rounded=0;" parent="1" source="70" target="74" edge="1">
                    <mxGeometry relative="1" as="geometry"/>
                </mxCell>
                <mxCell id="70" value="OA&lt;br&gt;（大而全）&lt;br&gt;&lt;font style=&quot;font-size: 12px&quot;&gt;角色、用户&lt;/font&gt;" style="shape=hexagon;perimeter=hexagonPerimeter2;whiteSpace=wrap;html=1;fixedSize=1;fontSize=22;rounded=0;" parent="1" vertex="1">
                    <mxGeometry x="470" y="1866" width="120" height="82" as="geometry"/>
                </mxCell>
                <mxCell id="74" value="部署在自己&lt;br&gt;乙方服务器" style="shape=process;whiteSpace=wrap;html=1;backgroundOutline=1;fontSize=14;rounded=0;" parent="1" vertex="1">
                    <mxGeometry x="470" y="1990" width="120" height="60" as="geometry"/>
                </mxCell>
                <mxCell id="76" value="租户A&lt;br&gt;用户、角色&lt;br&gt;RBAC" style="shape=card;whiteSpace=wrap;html=1;fontSize=14;verticalAlign=middle;align=center;rounded=0;" parent="1" vertex="1">
                    <mxGeometry x="355" y="2114" width="80" height="100" as="geometry"/>
                </mxCell>
                <mxCell id="77" value="&lt;span&gt;租户B&lt;br&gt;&lt;/span&gt;用户、角色&lt;br&gt;RBAC&lt;span&gt;&lt;br&gt;&lt;/span&gt;" style="shape=card;whiteSpace=wrap;html=1;fontSize=14;verticalAlign=middle;align=center;rounded=0;" parent="1" vertex="1">
                    <mxGeometry x="490" y="2114" width="80" height="100" as="geometry"/>
                </mxCell>
                <mxCell id="78" value="&lt;span&gt;租户C&lt;br&gt;&lt;/span&gt;用户、角色&lt;br&gt;RBAC&lt;span&gt;&lt;br&gt;&lt;/span&gt;" style="shape=card;whiteSpace=wrap;html=1;fontSize=14;verticalAlign=middle;align=center;rounded=0;" parent="1" vertex="1">
                    <mxGeometry x="625" y="2114" width="80" height="100" as="geometry"/>
                </mxCell>
                <mxCell id="79" value="" style="endArrow=classic;startArrow=classic;html=1;fontSize=14;entryX=0.5;entryY=1;entryDx=0;entryDy=0;exitX=0;exitY=0;exitDx=55;exitDy=0;exitPerimeter=0;rounded=0;" parent="1" source="76" target="74" edge="1">
                    <mxGeometry width="50" height="50" relative="1" as="geometry">
                        <mxPoint x="440" y="2110" as="sourcePoint"/>
                        <mxPoint x="490" y="2060" as="targetPoint"/>
                    </mxGeometry>
                </mxCell>
                <mxCell id="80" value="" style="endArrow=classic;startArrow=classic;html=1;fontSize=14;exitX=0.5;exitY=0;exitDx=0;exitDy=0;exitPerimeter=0;entryX=0.5;entryY=1;entryDx=0;entryDy=0;rounded=0;" parent="1" source="77" target="74" edge="1">
                    <mxGeometry width="50" height="50" relative="1" as="geometry">
                        <mxPoint x="460" y="2110" as="sourcePoint"/>
                        <mxPoint x="510" y="2060" as="targetPoint"/>
                    </mxGeometry>
                </mxCell>
                <mxCell id="81" value="" style="endArrow=classic;startArrow=classic;html=1;fontSize=14;exitX=0;exitY=0;exitDx=55;exitDy=0;exitPerimeter=0;entryX=0.5;entryY=1;entryDx=0;entryDy=0;rounded=0;" parent="1" source="78" target="74" edge="1">
                    <mxGeometry width="50" height="50" relative="1" as="geometry">
                        <mxPoint x="624" y="2110" as="sourcePoint"/>
                        <mxPoint x="624" y="2046" as="targetPoint"/>
                    </mxGeometry>
                </mxCell>
                <mxCell id="82" value="Actor" style="shape=umlActor;verticalLabelPosition=bottom;verticalAlign=top;html=1;outlineConnect=0;fontSize=14;rounded=0;" parent="1" vertex="1">
                    <mxGeometry x="518.75" y="2240" width="30" height="60" as="geometry"/>
                </mxCell>
                <mxCell id="83" value="数据隔离" style="text;html=1;strokeColor=none;fillColor=none;align=center;verticalAlign=middle;whiteSpace=wrap;rounded=0;fontSize=18;" parent="1" vertex="1">
                    <mxGeometry x="563.75" y="2255" width="100" height="30" as="geometry"/>
                </mxCell>
                <mxCell id="84" value="灾备" style="text;html=1;strokeColor=none;fillColor=none;align=center;verticalAlign=middle;whiteSpace=wrap;rounded=0;fontSize=18;" parent="1" vertex="1">
                    <mxGeometry x="396.25" y="2256" width="100" height="30" as="geometry"/>
                </mxCell>
            </root>
        </mxGraphModel>
    </diagram>
</mxfile>